<svg width="24" height="25" viewBox="0 0 24 25" fill="none" xmlns="http://www.w3.org/2000/svg">
<g id="24px / Iconly / Setting">
<g id="Setting">
<path id="Path" d="M12.0117 15.3302C10.4073 15.3302 9.10938 14.0802 9.10938 12.5102C9.10938 10.9402 10.4073 9.68018 12.0117 9.68018C13.6162 9.68018 14.8834 10.9402 14.8834 12.5102C14.8834 14.0802 13.6162 15.3302 12.0117 15.3302" fill="white" fill-opacity="0.7"/>
<path id="Path_2" opacity="0.4" d="M21.2301 14.87C21.036 14.57 20.76 14.27 20.4023 14.08C20.1162 13.94 19.9322 13.71 19.7687 13.44C19.2475 12.58 19.5541 11.45 20.4228 10.94C21.4447 10.37 21.7718 9.1 21.179 8.11L20.4943 6.93C19.9118 5.94 18.6344 5.59 17.6226 6.17C16.7233 6.65 15.5685 6.33 15.0473 5.48C14.8838 5.2 14.7918 4.9 14.8122 4.6C14.8429 4.21 14.7203 3.84 14.5363 3.54C14.1582 2.92 13.4735 2.5 12.7172 2.5H11.2763C10.5302 2.52 9.84553 2.92 9.4674 3.54C9.27323 3.84 9.16081 4.21 9.18125 4.6C9.20169 4.9 9.10972 5.2 8.9462 5.48C8.425 6.33 7.27019 6.65 6.38109 6.17C5.35913 5.59 4.09191 5.94 3.49917 6.93L2.81446 8.11C2.23194 9.1 2.55897 10.37 3.57071 10.94C4.43937 11.45 4.74596 12.58 4.23498 13.44C4.06125 13.71 3.87729 13.94 3.59115 14.08C3.24368 14.27 2.93709 14.57 2.77358 14.87C2.39546 15.49 2.4159 16.27 2.79402 16.92L3.49917 18.12C3.87729 18.76 4.58245 19.16 5.31825 19.16C5.66572 19.16 6.0745 19.06 6.40153 18.86C6.65702 18.69 6.96361 18.63 7.30085 18.63C8.31259 18.63 9.16081 19.46 9.18125 20.45C9.18125 21.6 10.1215 22.5 11.3069 22.5H12.6968C13.872 22.5 14.8122 21.6 14.8122 20.45C14.8429 19.46 15.6911 18.63 16.7029 18.63C17.0299 18.63 17.3365 18.69 17.6022 18.86C17.9292 19.06 18.3278 19.16 18.6855 19.16C19.411 19.16 20.1162 18.76 20.4943 18.12L21.2097 16.92C21.5776 16.25 21.6083 15.49 21.2301 14.87" fill="white" fill-opacity="0.7"/>
</g>
</g>
</svg>
